<svg id="Group_62561" data-name="Group 62561" xmlns="http://www.w3.org/2000/svg" width="18" height="18" viewBox="0 0 18 18">
  <g id="Group_54563" data-name="Group 54563">
    <path id="Path_6916" data-name="Path 6916" d="M9,0H9A8.994,8.994,0,0,0,1.713,14.275L.592,17.619l3.459-1.106A9,9,0,1,0,9,0Z" transform="translate(0)" fill="#392c23"/>
  </g>
  <path id="Path_6917" data-name="Path 6917" d="M117.768,125.716A2.548,2.548,0,0,1,116,126.991c-.472.1-1.088.181-3.163-.68a11.316,11.316,0,0,1-4.5-3.974,5.163,5.163,0,0,1-1.072-2.726,2.886,2.886,0,0,1,.923-2.2,1.312,1.312,0,0,1,.923-.324c.112,0,.212.006.3.01.265.011.4.027.573.446.218.525.748,1.822.812,1.955a.538.538,0,0,1,.038.489,1.562,1.562,0,0,1-.292.415c-.133.154-.26.271-.393.436-.122.143-.26.3-.106.563a8.019,8.019,0,0,0,1.465,1.822,6.638,6.638,0,0,0,2.118,1.307.571.571,0,0,0,.637-.1,10.932,10.932,0,0,0,.706-.935.5.5,0,0,1,.648-.2c.244.085,1.534.723,1.8.855s.44.2.5.308A2.252,2.252,0,0,1,117.768,125.716Z" transform="translate(-103.512 -112.992)" fill="#fff"/>
</svg>
