<svg xmlns="http://www.w3.org/2000/svg" width="14.376" height="11.579" viewBox="0 0 14.376 11.579">
  <path id="icons8_twitter" d="M18.269,8.369a5.98,5.98,0,0,1-1.7.464,2.946,2.946,0,0,0,1.3-1.62A5.924,5.924,0,0,1,16,7.922a2.942,2.942,0,0,0-5.023,2.668A8.4,8.4,0,0,1,4.9,7.533a2.914,2.914,0,0,0,.912,3.906,3,3,0,0,1-1.337-.365v.034a2.932,2.932,0,0,0,2.365,2.867,2.935,2.935,0,0,1-.775.1,3.135,3.135,0,0,1-.556-.054,2.955,2.955,0,0,0,2.754,2.031A5.959,5.959,0,0,1,4.6,17.309a5.842,5.842,0,0,1-.7-.042,8.429,8.429,0,0,0,4.522,1.312,8.3,8.3,0,0,0,8.392-8.319c0-.127,0-.253-.01-.377a5.8,5.8,0,0,0,1.472-1.514" transform="translate(-3.893 -7)" fill="#fff"/>
</svg>
