<svg xmlns="http://www.w3.org/2000/svg" width="16.83" height="21.879" viewBox="0 0 16.83 21.879">
  <path id="icons8_sand_timer" d="M3,1V2.683H4.683V6.049a6.717,6.717,0,0,0,3.543,5.89,6.717,6.717,0,0,0-3.543,5.89V21.2H3v1.683H19.83V21.2H18.147V17.83a6.717,6.717,0,0,0-3.543-5.89,6.717,6.717,0,0,0,3.543-5.89V2.683H19.83V1ZM6.366,2.683h10.1V6.049a5.049,5.049,0,0,1-10.1,0Zm5.049,10.1a5.034,5.034,0,0,1,5.049,5.049V21.2H14.781V19.513a3.366,3.366,0,0,0-6.732,0V21.2H6.366V17.83A5.034,5.034,0,0,1,11.415,12.781Z" transform="translate(-3 -1)" fill="#cf2a45"/>
</svg>
