<svg xmlns="http://www.w3.org/2000/svg" width="21.879" height="21.879" viewBox="0 0 21.879 21.879">
  <path id="icons8_goal" d="M11.939,1a10.973,10.973,0,1,0,9.3,5.207L20.013,7.43a9.3,9.3,0,1,1-3.57-3.563l1.229-1.223A10.811,10.811,0,0,0,11.939,1Zm9.5.25-10.091,10.1a.81.81,0,0,0-.25.592.84.84,0,0,0,1.486.539L22.636,2.433Zm-9.5,3.116A7.659,7.659,0,1,0,18.75,8.692L17.468,9.98a5.982,5.982,0,1,1-3.57-3.57l1.289-1.282A7.513,7.513,0,0,0,11.939,4.366Zm-.368,3.4a4.117,4.117,0,0,0-2.6,1.2,4.2,4.2,0,1,0,7.126,2.393l-2.367,2.367a2.529,2.529,0,0,1-3.576-3.576l2.367-2.36A4.149,4.149,0,0,0,11.571,7.765Z" transform="translate(-1 -1)" fill="#392c23"/>
</svg>
