<svg xmlns="http://www.w3.org/2000/svg" width="22.074" height="22.074" viewBox="0 0 22.074 22.074">
  <path id="icons8_help_2" d="M12.037,1A11.037,11.037,0,1,1,1,12.037,11.054,11.054,0,0,1,12.037,1Zm0,1.7a9.339,9.339,0,1,0,9.339,9.339A9.327,9.327,0,0,0,12.037,2.7Zm-.1,3.4a3.979,3.979,0,0,1,3.734,3.94h-1.7a2.226,2.226,0,0,0-2.653-2.209A2.3,2.3,0,0,0,9.49,10.1,2.068,2.068,0,0,0,10.876,12a4.052,4.052,0,0,1,1.386.862,2.5,2.5,0,0,1,.623,1.725h-1.7c0-.385-.053-.444-.159-.557a3.135,3.135,0,0,0-.836-.478,3.859,3.859,0,0,1-2.4-3.4,3.961,3.961,0,0,1,3.243-4.006A4.639,4.639,0,0,1,11.937,6.094Zm.948,10.188v1.7h-1.7v-1.7Z" transform="translate(-1 -1)" fill="#392c23"/>
</svg>
