<svg xmlns="http://www.w3.org/2000/svg" width="20" height="20" viewBox="0 0 20 20">
  <g id="icons8_geography" transform="translate(-2 -1)">
    <path id="Path_973" data-name="Path 973" d="M12,2A10,10,0,1,0,22,12,10.011,10.011,0,0,0,12,2Zm6.918,6h-2.3a12.822,12.822,0,0,0-1.052-3.154A8.06,8.06,0,0,1,18.918,8ZM20,12a7.952,7.952,0,0,1-.263,2h-2.83c.06-.643.093-1.311.093-2s-.033-1.357-.093-2h2.83A7.952,7.952,0,0,1,20,12Zm-8,8c-.843,0-1.949-1.481-2.555-4h5.11C13.949,18.519,12.843,20,12,20ZM9.108,14a18.572,18.572,0,0,1,0-4h5.784A18.8,18.8,0,0,1,15,12a18.8,18.8,0,0,1-.108,2ZM4,12a7.952,7.952,0,0,1,.263-2h2.83C7.033,10.643,7,11.311,7,12s.033,1.357.093,2H4.263A7.952,7.952,0,0,1,4,12Zm8-8c.843,0,1.949,1.481,2.555,4H9.445C10.051,5.481,11.157,4,12,4Zm-3.56.846A12.822,12.822,0,0,0,7.388,8H5.082A8.056,8.056,0,0,1,8.44,4.846ZM5.082,16h2.3a12.822,12.822,0,0,0,1.052,3.154A8.059,8.059,0,0,1,5.082,16ZM15.56,19.154A12.864,12.864,0,0,0,16.612,16h2.3A8.048,8.048,0,0,1,15.56,19.154Z" transform="translate(0 -1)" fill="#392c23"/>
  </g>
</svg>
