<svg xmlns="http://www.w3.org/2000/svg" width="22.074" height="20.376" viewBox="0 0 22.074 20.376">
  <path id="icons8_telephone" d="M12.037,2c-.929,0-1.764.033-2.547.08V2.066c-.06,0-.113.013-.172.013a25.44,25.44,0,0,0-5.724.9A3.811,3.811,0,0,0,1.822,4.189,3.206,3.206,0,0,0,1,6.245V8.792H6.107l.073-.769A7.961,7.961,0,0,1,6.8,5.781,4.037,4.037,0,0,1,7.832,4.355a2.352,2.352,0,0,1,1.141-.544c.113-.007.192-.02.312-.033.007,0,.013.007.02,0,.816-.046,1.725-.08,2.733-.08s1.917.033,2.733.08c.007.007.013,0,.02,0,.027.007.053.007.086.013.08,0,.146.013.226.02a2.352,2.352,0,0,1,1.141.544,4.035,4.035,0,0,1,1.035,1.426,7.959,7.959,0,0,1,.617,2.242l.066.769h5.114V6.245a3.206,3.206,0,0,0-.823-2.056A3.811,3.811,0,0,0,20.48,2.982a25.441,25.441,0,0,0-5.724-.9c-.06,0-.113-.013-.172-.013V2.08C13.8,2.033,12.965,2,12.037,2ZM5.742,4.222a6.983,6.983,0,0,0-.484.856A5.848,5.848,0,0,0,4.7,7.094h-2V6.245a1.618,1.618,0,0,1,.424-.962,2.214,2.214,0,0,1,.968-.67A16.291,16.291,0,0,1,5.742,4.222Zm12.589,0a16.925,16.925,0,0,1,1.658.391,2.235,2.235,0,0,1,.962.67,1.618,1.618,0,0,1,.424.962v.849h-2a5.952,5.952,0,0,0-.55-2.016A8.044,8.044,0,0,0,18.331,4.222ZM7.792,8.792v1.8l-.08.053a18.457,18.457,0,0,0-2.454,2.242c-1.234,1.34-2.56,3.151-2.56,5.24v1.7a2.556,2.556,0,0,0,2.547,2.547H18.829a2.556,2.556,0,0,0,2.547-2.547v-1.7c0-2.089-1.326-3.9-2.554-5.24a18.736,18.736,0,0,0-2.461-2.242l-.08-.053v-1.8h-1.7v1.7H9.49v-1.7Zm.743,3.4h7a14.675,14.675,0,0,1,2.023,1.844c1.108,1.207,2.116,2.792,2.116,4.1v1.7a.838.838,0,0,1-.849.849H5.245a.838.838,0,0,1-.849-.849v-1.7c0-1.307,1.008-2.892,2.109-4.1A14.959,14.959,0,0,1,8.535,12.188Zm-.743,1.7v1.7h1.7v-1.7Zm3.4,0v1.7h1.7v-1.7Zm3.4,0v1.7h1.7v-1.7Zm-6.792,3.4v1.7h1.7v-1.7Zm3.4,0v1.7h1.7v-1.7Zm3.4,0v1.7h1.7v-1.7Z" transform="translate(-1 -2)" fill="#392c23"/>
</svg>
