<svg xmlns="http://www.w3.org/2000/svg" width="23.259" height="23.238" viewBox="0 0 23.259 23.238">
  <path id="icons8_statistics" d="M11.735,1V2.789H3.684A2.693,2.693,0,0,0,1,5.473V16.208a2.693,2.693,0,0,0,2.684,2.684h8.051v1.971L4.606,22.491,5,24.238l7.632-1.74,7.632,1.74.391-1.747-7.129-1.628V18.892h8.051a2.693,2.693,0,0,0,2.684-2.684V5.473a2.693,2.693,0,0,0-2.684-2.684H13.524V1ZM3.684,4.578H21.575a.883.883,0,0,1,.895.895V16.208a.883.883,0,0,1-.895.895H3.684a.883.883,0,0,1-.895-.895V5.473A.883.883,0,0,1,3.684,4.578ZM17.109,6.773,12.588,11.12,9.023,8.178,4.648,12.2l1.2,1.314,3.229-2.963,3.592,2.963,4.515-4.333,2.243,1.9,1.16-1.37Z" transform="translate(-1 -1)" fill="#fff"/>
</svg>
