<svg xmlns="http://www.w3.org/2000/svg" width="14" height="14" viewBox="0 0 14 14">
  <g id="icons8_facebook_logo_1" transform="translate(-0.188 0.071)">
    <path id="Subtraction_5" data-name="Subtraction 5" d="M6.966,14A7,7,0,0,1,2.05,2.05a7,7,0,0,1,9.91,9.889A6.965,6.965,0,0,1,7.187,14c.23-.008.479-.031.761-.069V8.855H9.759l.284-1.84h-2.1V6.009A2.064,2.064,0,0,1,8.162,5a.814.814,0,0,1,.751-.435h1.149V2.961h-.009a9.772,9.772,0,0,0-1.427-.086c-1.773,0-2.672.981-2.672,2.917V7.015H4.221v1.84H5.953v5.058A7.084,7.084,0,0,0,6.966,14Z" transform="translate(0.188 -0.071)" fill="#fff"/>
  </g>
</svg>
