<svg xmlns="http://www.w3.org/2000/svg" width="20" height="20" viewBox="0 0 20 20">
  <g id="icons8_clock" transform="translate(-2 -2)">
    <path id="Path_966" data-name="Path 966" d="M14.892,13.586,13.88,12.117a1.437,1.437,0,0,1-.287-.681L13.12,8.05A1.05,1.05,0,0,0,12.07,7h0a1.05,1.05,0,0,0-1.05,1.05L10.6,11.734a1.792,1.792,0,0,0,.623,1.57l2.181,1.767a1.049,1.049,0,0,0,1.485,0h0A1.052,1.052,0,0,0,14.892,13.586Z" transform="translate(-0.121 -0.166)" fill="#392c23"/>
    <path id="Path_967" data-name="Path 967" d="M12,2A10,10,0,1,0,22,12,10,10,0,0,0,12,2Zm0,17a7,7,0,1,1,7-7A7,7,0,0,1,12,19Z" transform="translate(0 0)" fill="#392c23"/>
  </g>
</svg>
