<svg xmlns="http://www.w3.org/2000/svg" width="15.814" height="18" viewBox="0 0 15.814 18">
  <g id="svgexport-6_7_" data-name="svgexport-6 (7)" transform="translate(-31.423 -0.39)">
    <g id="Group_54684" data-name="Group 54684" transform="translate(31.423 0.39)">
      <path id="Path_25754" data-name="Path 25754" d="M47.229,4.9a4.535,4.535,0,0,1-2.74-.916A4.536,4.536,0,0,1,42.677.39H39.738V8.421l0,4.4A2.664,2.664,0,1,1,37.907,10.3V7.311a5.783,5.783,0,0,0-.848-.063,5.636,5.636,0,0,0-4.235,1.894,5.523,5.523,0,0,0,.249,7.616,5.734,5.734,0,0,0,.531.464,5.636,5.636,0,0,0,3.455,1.168,5.783,5.783,0,0,0,.848-.062,5.617,5.617,0,0,0,3.138-1.569A5.5,5.5,0,0,0,42.7,12.843L42.68,6.274a7.447,7.447,0,0,0,4.557,1.549V4.9h-.008Z" transform="translate(-31.423 -0.39)" fill="#392c23"/>
    </g>
  </g>
</svg>
