<svg id="svgexport-6_9_" data-name="svgexport-6 (9)" xmlns="http://www.w3.org/2000/svg" width="32" height="32" viewBox="0 0 32 32">
  <path id="Path_25757" data-name="Path 25757" d="M32,21.656a10.367,10.367,0,0,0-7.575-9.967A12.218,12.218,0,1,0,1.694,18.429L.045,24.392l5.963-1.649a12.173,12.173,0,0,0,5.68,1.682,10.347,10.347,0,0,0,15.231,6.137l5.035,1.393-1.393-5.035A10.307,10.307,0,0,0,32,21.656Zm-25.7-.94-3.57.988.988-3.57L3.5,17.781a10.34,10.34,0,1,1,3.159,3.159Zm22.962,8.55-2.649-.733-.354.23a8.472,8.472,0,0,1-12.636-4.407A12.242,12.242,0,0,0,24.356,13.627a8.472,8.472,0,0,1,4.407,12.636l-.23.354Zm0,0" fill="#392c23"/>
  <path id="Path_25758" data-name="Path 25758" d="M182.387,271H180.5v1.887h1.887Zm0,0" transform="translate(-169.217 -254.069)" fill="#3ec4b5"/>
  <path id="Path_25759" data-name="Path 25759" d="M137.387,93.774A1.868,1.868,0,0,0,138,95.167l2.216,2.028v2.3H138.33V98.026l-1.6-1.467a3.774,3.774,0,1,1,6.32-2.785H141.16a1.887,1.887,0,1,0-3.774,0Zm0,0" transform="translate(-127.048 -84.39)" fill="#3ec4b5"/>
</svg>
