<svg xmlns="http://www.w3.org/2000/svg" width="18" height="18" viewBox="0 0 18 18">
  <g id="Group_54683" data-name="Group 54683" transform="translate(-734.5 -5385.5)">
    <path id="Path_204" data-name="Path 204" d="M743.5,5391.8a2.7,2.7,0,1,0,1.909.792A2.709,2.709,0,0,0,743.5,5391.8Zm0-1.8a4.5,4.5,0,1,1-3.182,1.32A4.518,4.518,0,0,1,743.5,5390Zm5.85-.228a1.125,1.125,0,1,1-2.25,0,1.125,1.125,0,0,1,.33-.792,1.109,1.109,0,0,1,1.59,0A1.125,1.125,0,0,1,749.35,5389.772Zm-5.85-2.473c-2.227,0-2.59.012-3.626.049a5,5,0,0,0-1.618.3,2.658,2.658,0,0,0-.972.635,2.6,2.6,0,0,0-.634.972,4.878,4.878,0,0,0-.3,1.62c-.047,1-.053,1.344-.053,3.624,0,2.232.006,2.592.053,3.625a4.909,4.909,0,0,0,.3,1.62,2.593,2.593,0,0,0,.631.972,2.733,2.733,0,0,0,.972.635,5.08,5.08,0,0,0,1.62.3c.994.049,1.342.049,3.626.049,2.227,0,2.59-.012,3.626-.049a5.03,5.03,0,0,0,1.618-.3,2.67,2.67,0,0,0,.972-.635,2.627,2.627,0,0,0,.634-.972,4.909,4.909,0,0,0,.3-1.62c.047-1,.053-1.344.053-3.625,0-2.231-.006-2.591-.053-3.624a4.909,4.909,0,0,0-.3-1.62,2.624,2.624,0,0,0-.634-.972,2.477,2.477,0,0,0-.972-.635,5.018,5.018,0,0,0-1.618-.3C746.133,5387.3,745.785,5387.3,743.5,5387.3Zm0-1.8c2.446,0,2.75.012,3.709.048a6.894,6.894,0,0,1,2.185.42,4.612,4.612,0,0,1,2.633,2.64,6.609,6.609,0,0,1,.419,2.185c.042.959.054,1.26.054,3.707s-.008,2.749-.054,3.708a6.6,6.6,0,0,1-.419,2.184,4.354,4.354,0,0,1-1.037,1.6,4.494,4.494,0,0,1-1.6,1.044,6.6,6.6,0,0,1-2.185.408c-.959.049-1.264.06-3.709.06s-2.75-.011-3.71-.06a6.619,6.619,0,0,1-2.185-.408,4.49,4.49,0,0,1-1.595-1.044,4.37,4.37,0,0,1-1.037-1.6,6.6,6.6,0,0,1-.419-2.184c-.042-.959-.054-1.26-.054-3.708s.008-2.748.054-3.707a6.611,6.611,0,0,1,.419-2.185,4.371,4.371,0,0,1,1.037-1.6,4.506,4.506,0,0,1,1.595-1.043,6.9,6.9,0,0,1,2.185-.42C740.75,5385.512,741.054,5385.5,743.5,5385.5Z" fill="#392c23"/>
  </g>
</svg>
