<svg xmlns="http://www.w3.org/2000/svg" width="22.882" height="16.191" viewBox="0 0 22.882 16.191">
  <path id="icons8_video_call" d="M21.882,3.505l-5.5,3.118V3.129a2.072,2.072,0,0,0-2.064-2.064H1.064A2.072,2.072,0,0,0-1,3.129V15.192a2.072,2.072,0,0,0,2.064,2.064H14.313a2.072,2.072,0,0,0,2.064-2.064V11.7l5.5,3.118ZM1.064,2.441H14.313A.679.679,0,0,1,15,3.129V15.192a.679.679,0,0,1-.688.688H1.064a.679.679,0,0,1-.688-.688V3.129A.679.679,0,0,1,1.064,2.441Zm19.442,3.43v6.58l-4.128-2.338v-1.9Z" transform="translate(1 -1.065)" fill="#392c23"/>
</svg>
