<svg xmlns="http://www.w3.org/2000/svg" width="26" height="26" viewBox="0 0 26 26">
  <path id="icons8_print" d="M6.969,0a3.016,3.016,0,0,0-3,3V8H3a3,3,0,0,0-3,3v6a3,3,0,0,0,3,3h.969v3a3.016,3.016,0,0,0,3,3h12a3.016,3.016,0,0,0,3-3V20H23a3,3,0,0,0,3-3V11a3,3,0,0,0-3-3H21.969V3a3.016,3.016,0,0,0-3-3Zm0,2h12a.987.987,0,0,1,1,1V8h-14V3A.987.987,0,0,1,6.969,2ZM21.5,10A1.5,1.5,0,1,1,20,11.5,1.5,1.5,0,0,1,21.5,10ZM5.969,15h14v8a.987.987,0,0,1-1,1h-12a.987.987,0,0,1-1-1ZM8,17v2H18V17Zm0,3v2h7V20Z" fill="#392c23"/>
</svg>
