<svg xmlns="http://www.w3.org/2000/svg" width="25.375" height="20.125" viewBox="0 0 25.375 20.125">
  <path id="icons8_layers_1" d="M16,5.938l-.375.125-10,4L3.313,11l2.313.938L9.531,13.5,5.625,15.063,3.313,16l2.313.938L9.531,18.5,5.625,20.063,3.313,21l2.313.938,10,4,.375.125.375-.125,10-4L28.688,21l-2.312-.937L22.469,18.5l3.906-1.562L28.688,16l-2.312-.937L22.469,13.5l3.906-1.562L28.688,11l-2.312-.937-10-4Zm0,2.156L23.281,11,16,13.906,8.719,11Zm-3.75,6.5,3.375,1.344.375.125.375-.125,3.375-1.344L23.281,16,16,18.906,8.719,16Zm0,5,3.375,1.344.375.125.375-.125,3.375-1.344L23.281,21,16,23.906,8.719,21Z" transform="translate(-3.313 -5.938)" fill="#cf2a45"/>
</svg>
