<svg xmlns="http://www.w3.org/2000/svg" width="28.39" height="24" viewBox="0 0 28.39 24">
  <path id="icons8_service_1" d="M21,2V4.422a5.058,5.058,0,0,0-2.746,1.164c-.019.022-.008.056-.027.078l-.922-.531-.867-.5-1,1.734.867.5,1.219.7C17.381,8.066,17,8.489,17,9s.379.935.523,1.43l-1.219.7-.867.5,1,1.734.867-.5.922-.531c.019.022.008.056.027.078A5.058,5.058,0,0,0,21,13.579V16h2V13.579a5.057,5.057,0,0,0,2.746-1.164c.019-.022.008-.056.027-.078l.922.531.867.5,1-1.734-.867-.5-1.219-.7C26.623,9.935,27,9.512,27,9s-.379-.935-.523-1.43l1.219-.7.867-.5-1-1.734-.867.5-.922.531c-.019-.022-.008-.056-.027-.078A5.057,5.057,0,0,0,23,4.422V2Zm1,4a2.812,2.812,0,0,1,2.254.914A3.163,3.163,0,0,1,25,9a3.163,3.163,0,0,1-.746,2.086A2.812,2.812,0,0,1,22,12a2.812,2.812,0,0,1-2.254-.914A3.163,3.163,0,0,1,19,9a3.163,3.163,0,0,1,.746-2.086A2.812,2.812,0,0,1,22,6ZM9,14a10.93,10.93,0,0,0-2.285.3,1,1,0,0,0-.105.031L1.669,16.055a1,1,0,0,0-.617,1.262l2,6a1,1,0,0,0,1.32.613l4.586-1.836,6.352,3.133-.113-.063a5.007,5.007,0,0,0,4.914.352,1,1,0,0,0,.133-.074l8.317-5.613.828-.559-1.117-1.656-.828.559-8.207,5.535a3,3,0,0,1-2.93-.211,1,1,0,0,0-.113-.062L9.443,20.1a1,1,0,0,0-.813-.031L4.614,21.677,3.263,17.618l3.946-1.379A10.784,10.784,0,0,1,9,16a3.084,3.084,0,0,1,2.383.785,19.316,19.316,0,0,0,3.649,2.684c1.174.519,2.46.564,4.981.531l1-.012-.024-2-1,.012c-2.479.033-3.444-.049-4.145-.359a22.582,22.582,0,0,1-3.227-2.426A5.546,5.546,0,0,0,9,14Z" transform="translate(-0.999 -2)" fill="#392c23"/>
</svg>
