<svg id="icons8_news" xmlns="http://www.w3.org/2000/svg" width="20.196" height="20.196" viewBox="0 0 20.196 20.196">
  <path id="icons8_news-2" data-name="icons8_news" d="M2,2V18.83A3.381,3.381,0,0,0,5.366,22.2H18.83A3.381,3.381,0,0,0,22.2,18.83V7.049H17.147V2ZM3.683,3.683H15.464V18.83a3.338,3.338,0,0,0,.473,1.683H5.366A1.67,1.67,0,0,1,3.683,18.83ZM5.366,7.049V8.732h8.415V7.049ZM17.147,8.732h3.366v10.1a1.683,1.683,0,0,1-3.366,0ZM5.366,10.415V12.1H8.732V10.415Zm5.049,0V12.1h3.366V10.415ZM5.366,13.781v1.683H8.732V13.781Zm5.049,0v1.683h3.366V13.781ZM5.366,17.147V18.83H8.732V17.147Zm5.049,0V18.83h3.366V17.147Z" transform="translate(-2 -2)" fill="#392c23"/>
</svg>
