<svg xmlns="http://www.w3.org/2000/svg" width="24" height="24.014" viewBox="0 0 24 24.014">
  <path id="icons8_pipelines" d="M2.909.992A.923.923,0,0,0,2,1.93V9.314a.923.923,0,1,0,1.846,0V8.391h8.16a.923.923,0,0,0,.3,0H14a4.611,4.611,0,0,1,4.615,4.615v1.7a.923.923,0,0,0,0,.3V23.16h-.923a.923.923,0,1,0,0,1.846h7.385a.923.923,0,1,0,0-1.846h-.923V15a.923.923,0,0,0,0-.3V13.007A10.176,10.176,0,0,0,14,2.853H12.323a.881.881,0,0,0-.321,0H3.846V1.93A.923.923,0,0,0,2.909.992ZM3.846,4.7h7.385V6.545H3.846Zm9.231,0H14a8.306,8.306,0,0,1,8.308,8.308v.923H20.461v-.923A6.48,6.48,0,0,0,14,6.545h-.923ZM2.909,12.069A.923.923,0,0,0,2,13.007v7.385a.923.923,0,1,0,1.846,0v-.923H7.538V23.16H6.615a.923.923,0,1,0,0,1.846H14a.923.923,0,1,0,0-1.846h-.923V18.545A4.629,4.629,0,0,0,8.462,13.93H3.846v-.923a.923.923,0,0,0-.937-.937Zm.937,3.707H8.462a2.754,2.754,0,0,1,2.769,2.769V23.16H9.385V18.545a.923.923,0,0,0-.923-.923H3.846Zm16.615,0h1.846V23.16H20.461Z" transform="translate(-2 -0.992)" fill="#392c23"/>
</svg>
