<svg xmlns="http://www.w3.org/2000/svg" width="20" height="25.953" viewBox="0 0 20 25.953">
  <path id="icons8_water" d="M13,1.023l-.727.766A70.241,70.241,0,0,0,7.7,7.258C5.406,10.32,3,13.891,3,16.977a10,10,0,0,0,20,0c0-3.086-2.406-6.656-4.7-9.719a71.292,71.292,0,0,0-4.578-5.469Zm0,3.016a49.555,49.555,0,0,1,3.7,4.422c2.2,2.953,4.3,6.633,4.3,8.516a8,8,0,0,1-16,0c0-1.883,2.094-5.563,4.3-8.516A49.555,49.555,0,0,1,13,4.039ZM7,16.977a6.217,6.217,0,0,0,1.422,4.039A5.9,5.9,0,0,0,13,22.977v-2a3.7,3.7,0,0,1-3.047-1.258A4.291,4.291,0,0,1,9,16.977Z" transform="translate(-3 -1.023)" fill="#392c23"/>
</svg>
