<svg xmlns="http://www.w3.org/2000/svg" width="24" height="24" viewBox="0 0 24 24">
  <path id="icons8_environmental_planning" d="M3.4,1A2.4,2.4,0,0,0,1,3.4V21.8H12.2V20.2H10.6V17H7.4v3.2H2.6V3.4a.8.8,0,0,1,.8-.8H14.6a.8.8,0,0,1,.8.8v9.3a5.419,5.419,0,0,1,1.6-.434V9h4.8v3.2h1.6V8.6a1.212,1.212,0,0,0-1.2-1.2H17v-4A2.4,2.4,0,0,0,14.6,1Zm.8,3.2V5.8H5.8V4.2Zm3.2,0V5.8h3.2V4.2Zm4.8,0V5.8h1.6V4.2Zm-8,3.2V9H5.8V7.4Zm3.2,0V9h3.2V7.4Zm4.8,0V9h1.6V7.4Zm-8,3.2v1.6H5.8V10.6Zm3.2,0v1.6h3.2V10.6Zm4.8,0v1.6h1.6V10.6Zm6.4,0v1.6h1.6V10.6ZM4.2,13.8v1.6H5.8V13.8Zm3.2,0v1.6h3.2V13.8Zm4.8,0v1.6h.5A5.446,5.446,0,0,1,13.8,13.8Zm5.453,0A3.865,3.865,0,0,0,13.8,17.653a3.754,3.754,0,0,0,2.663,3.553l-2.628,2.628,1.131,1.131,2.628-2.628A3.754,3.754,0,0,0,21.147,25,3.865,3.865,0,0,0,25,21.147V14.6a.8.8,0,0,0-.8-.8Zm0,1.6H23.4v5.747a2.255,2.255,0,0,1-4.509,0v-.106l2.875-2.875-1.131-1.131-2.878,2.878c-.048,0-.032,0-.1,0a2.255,2.255,0,0,1,0-4.509ZM4.2,17v1.6H5.8V17Z" transform="translate(-1 -1)" fill="#392c23"/>
</svg>
