<svg xmlns="http://www.w3.org/2000/svg" width="29" height="29" viewBox="0 0 29 29">
  <g id="Icons8_share" transform="translate(-1688.999 -326)">
    <g id="Rectangle_2289" data-name="Rectangle 2289" transform="translate(1688.999 326)" fill="none" stroke="#fff" stroke-width="1.5">
      <rect width="29" height="29" rx="3" stroke="none"/>
      <rect x="0.75" y="0.75" width="27.5" height="27.5" rx="2.25" fill="none"/>
    </g>
    <path id="icons8_share-2" data-name="icons8_share" d="M12.5,1A2.507,2.507,0,0,0,10,3.5a2.643,2.643,0,0,0,.051.5L5.52,6.039a2.5,2.5,0,1,0,.008,2.91l4.535,2.016A2.415,2.415,0,0,0,10,11.5a2.521,2.521,0,1,0,.473-1.449L5.938,8.039A2.48,2.48,0,0,0,6,7.5a2.523,2.523,0,0,0-.062-.547l4.508-2.039A2.5,2.5,0,1,0,12.5,1Zm0,1A1.5,1.5,0,1,1,11,3.5,1.491,1.491,0,0,1,12.5,2Zm-9,4A1.5,1.5,0,1,1,2,7.5,1.49,1.49,0,0,1,3.5,6Zm9,4A1.5,1.5,0,1,1,11,11.5,1.491,1.491,0,0,1,12.5,10Z" transform="translate(1695 333)" fill="#fff"/>
  </g>
</svg>
