<svg xmlns="http://www.w3.org/2000/svg" width="24" height="24.005" viewBox="0 0 24 24.005">
  <path id="icons8_construction" d="M13.927,1A3.693,3.693,0,1,0,17.62,4.693,3.707,3.707,0,0,0,13.927,1Zm0,1.847A1.847,1.847,0,1,1,12.08,4.693,1.833,1.833,0,0,1,13.927,2.847ZM5.372,6.54A2.778,2.778,0,0,0,3.179,7.614L3.111,7.7,1.08,12.224a.925.925,0,0,0,.49,1.233l13.986,7.152a6.6,6.6,0,0,0-.7,1.27,13.2,13.2,0,0,0-.646,2l-.252,1.125H25l-.188-1.082a34.671,34.671,0,0,0-.92-3.809,13.511,13.511,0,0,0-1.118-2.727,4.237,4.237,0,0,0-.826-1.064,2.013,2.013,0,0,0-1.327-.552,1.529,1.529,0,0,0-.963.368,2.864,2.864,0,0,0-.537.606,14.375,14.375,0,0,0-.783,1.356,7.657,7.657,0,0,1-.7,1.118c-.207.248-.3.245-.245.245h0L13.927,17.7v-5.85A2.769,2.769,0,0,0,12.82,9.634L9.433,7.1A2.758,2.758,0,0,0,7.774,6.54Zm0,1.847h2.4a.919.919,0,0,1,.552.184l3.387,2.539a.918.918,0,0,1,.368.739v4.9L3.129,12.18,4.676,8.729A.919.919,0,0,1,5.372,8.386ZM4.51,17.035,2.952,25.006H4.831l1.389-7.1Zm16.208.667a2.666,2.666,0,0,1,.458.61,12.376,12.376,0,0,1,.949,2.351,19.644,19.644,0,0,1,.6,2.5H16.376a4.556,4.556,0,0,1,.184-.566,4.681,4.681,0,0,1,.577-1.046.951.951,0,0,1,.252-.235,2.186,2.186,0,0,0,1.663-.909,8.582,8.582,0,0,0,.905-1.421c.257-.472.5-.917.682-1.183A.9.9,0,0,1,20.718,17.7ZM8.167,18.9l1.922,2.831a.931.931,0,0,1,.144.5v2.77H12.08v-2.77a2.785,2.785,0,0,0-.451-1.515l-.047-.072Z" transform="translate(-0.999 -1)" fill="#392c23"/>
</svg>
