<svg xmlns="http://www.w3.org/2000/svg" width="28" height="28" viewBox="0 0 28 28">
  <path id="icons8_sun" d="M17.983,3.978A1.05,1.05,0,0,0,16.95,5.043v2.1a1.05,1.05,0,0,0,2.1,0v-2.1a1.05,1.05,0,0,0-1.066-1.064Zm-9.152,3.8a1.049,1.049,0,0,0-.731,1.8l1.485,1.484a1.051,1.051,0,1,0,1.486-1.485L9.586,8.091A1.05,1.05,0,0,0,8.832,7.774Zm18.3,0a1.05,1.05,0,0,0-.722.317L24.929,9.575a1.051,1.051,0,1,0,1.486,1.485L27.9,9.577a1.049,1.049,0,0,0-.764-1.8ZM18,10.29a7.7,7.7,0,1,0,7.7,7.7A7.714,7.714,0,0,0,18,10.29Zm0,2.1a5.6,5.6,0,1,1-5.6,5.6A5.583,5.583,0,0,1,18,12.389ZM5.05,16.936a1.049,1.049,0,1,0,0,2.1h2.1a1.049,1.049,0,1,0,0-2.1Zm23.8,0a1.049,1.049,0,1,0,0,2.1h2.1a1.049,1.049,0,1,0,0-2.1ZM10.307,24.594a1.05,1.05,0,0,0-.722.317L8.1,26.395A1.051,1.051,0,0,0,9.586,27.88L11.071,26.4a1.049,1.049,0,0,0-.764-1.8Zm15.353,0a1.049,1.049,0,0,0-.731,1.8l1.485,1.484A1.051,1.051,0,1,0,27.9,26.395l-1.485-1.484a1.05,1.05,0,0,0-.755-.317Zm-7.677,3.172A1.05,1.05,0,0,0,16.95,28.83v2.1a1.05,1.05,0,0,0,2.1,0v-2.1a1.05,1.05,0,0,0-1.066-1.064Z" transform="translate(-4 -3.978)" fill="#392c23"/>
</svg>
