<svg id="icons8_engineering" xmlns="http://www.w3.org/2000/svg" width="22.813" height="23.562" viewBox="0 0 22.813 23.562">
  <path id="icons8_engineering-2" data-name="icons8_engineering" d="M10.234,1,9.827,3.166A10,10,0,0,0,5.718,5.539L3.641,4.806,1.234,8.974,2.9,10.4a9.946,9.946,0,0,0-.355,2.38,9.946,9.946,0,0,0,.355,2.38L1.234,16.587l2.406,4.168,2.077-.733A10,10,0,0,0,9.827,22.4l.408,2.166h4.812l.408-2.166a10,10,0,0,0,4.106-2.373l2.081.733,2.406-4.168L22.38,15.161a9.916,9.916,0,0,0,.358-2.38,9.948,9.948,0,0,0-.355-2.38l1.663-1.427L21.641,4.806l-2.077.733a10,10,0,0,0-4.109-2.377L15.047,1Zm1.4,1.683H13.65l.335,1.778.539.125A8.391,8.391,0,0,1,18.8,7.055l.375.4,1.709-.6L21.89,8.606,20.523,9.78l.164.526a8.469,8.469,0,0,1,0,4.95l-.161.526,1.367,1.174L20.881,18.7l-1.713-.6-.375.4a8.391,8.391,0,0,1-4.273,2.469l-.536.125-.335,1.778H11.631L11.3,21.1l-.536-.125a8.39,8.39,0,0,1-4.273-2.469l-.375-.4L4.4,18.7,3.391,16.956l1.367-1.174L4.6,15.256a8.433,8.433,0,0,1,0-4.95l.161-.526L3.391,8.606,4.4,6.858l1.713.6.375-.4A8.391,8.391,0,0,1,10.76,4.586l.536-.125Zm1.009,3.366a6.732,6.732,0,1,0,6.732,6.732A6.745,6.745,0,0,0,12.641,6.049Zm0,1.683a5.049,5.049,0,1,1-5.049,5.049A5.036,5.036,0,0,1,12.641,7.732Zm0,3.366a1.683,1.683,0,1,0,1.683,1.683A1.683,1.683,0,0,0,12.641,11.1Z" transform="translate(-1.234 -1)" fill="#cf2a45"/>
</svg>
