<svg xmlns="http://www.w3.org/2000/svg" width="24" height="24" viewBox="0 0 24 24">
  <path id="icons8_paint_palette" d="M13,1A12.009,12.009,0,0,0,1,13v.923a3.709,3.709,0,0,0,3.692,3.692h.923a2.752,2.752,0,0,1,2.769,2.769v.923A3.709,3.709,0,0,0,12.077,25H13A12,12,0,1,0,13,1Zm0,1.846a10.154,10.154,0,1,1,0,20.308h-.923a1.831,1.831,0,0,1-1.846-1.846v-.923a4.629,4.629,0,0,0-4.615-4.615H4.692a1.831,1.831,0,0,1-1.846-1.846V13A10.141,10.141,0,0,1,13,2.846Zm-.923,1.846a1.846,1.846,0,1,0,1.846,1.846A1.85,1.85,0,0,0,12.077,4.692Zm5.538,1.846a1.846,1.846,0,1,0,1.846,1.846A1.85,1.85,0,0,0,17.615,6.538ZM6.538,8.385a1.846,1.846,0,1,0,1.846,1.846A1.85,1.85,0,0,0,6.538,8.385Zm12.923,3.692a1.846,1.846,0,1,0,1.846,1.846A1.85,1.85,0,0,0,19.462,12.077Zm-3.692,5.538a1.846,1.846,0,1,0,1.846,1.846A1.85,1.85,0,0,0,15.769,17.615Z" transform="translate(-1 -1)" fill="#392c23"/>
</svg>
