<svg id="icon8" xmlns="http://www.w3.org/2000/svg" width="21.95" height="18.814" viewBox="0 0 21.95 18.814">
  <path id="Union_32" data-name="Union 32" d="M.845,18.814A.85.85,0,0,1,0,17.96V4.276A.851.851,0,0,1,.845,3.42H3.377V.854A.85.85,0,0,1,4.222,0H21.106a.849.849,0,0,1,.843.856V14.538a.849.849,0,0,1-.843.856H18.573V17.96a.849.849,0,0,1-.843.854Zm.843-1.71h15.2V5.131H1.688ZM5.065,3.42H17.73a.849.849,0,0,1,.843.856v9.407h1.688V1.71H5.065ZM7.548,7.7l5.066,3.42-5.066,3.42Z" transform="translate(0)" fill="#392c23"/>
</svg>
