<svg xmlns="http://www.w3.org/2000/svg" width="18.89" height="16.191" viewBox="0 0 18.89 16.191">
  <path id="icons8_image" d="M3.024,2A2.031,2.031,0,0,0,1,4.024V16.167a2.031,2.031,0,0,0,2.024,2.024H17.866a2.031,2.031,0,0,0,2.024-2.024V4.024A2.031,2.031,0,0,0,17.866,2Zm0,1.349H17.866a.666.666,0,0,1,.675.675v9.8L13.813,8.836,11.177,11.8,7.114,7.518,2.349,12.884V4.024A.666.666,0,0,1,3.024,3.349ZM14.493,4.7a1.349,1.349,0,1,0,1.349,1.349A1.352,1.352,0,0,0,14.493,4.7ZM7.145,9.511,14.1,16.842H3.024a.666.666,0,0,1-.675-.675V14.918Zm6.694,1.323,4.7,4.954v.379a.666.666,0,0,1-.675.675H15.953L12.11,12.784Z" transform="translate(-1 -2)" fill="#392c23"/>
</svg>
