<svg id="icons8_idea" xmlns="http://www.w3.org/2000/svg" width="23.562" height="23.233" viewBox="0 0 23.562 23.233">
  <path id="icons8_idea-2" data-name="icons8_idea" d="M3.367,1.2l-1.2,1.2.6.592,1.19,1.19.592.6,1.2-1.2-.6-.592-1.19-1.19ZM22.2,1.2l-.592.6L19.822,3.575l1.19,1.2.592-.6,1.782-1.782ZM12.781,2.55A6.745,6.745,0,0,0,6.049,9.282,7.56,7.56,0,0,0,7.89,14.094a6.376,6.376,0,0,1,1.525,4.444v1.683a2.524,2.524,0,0,0,1.7,2.367,1.277,1.277,0,0,0-.013.158,1.683,1.683,0,0,0,3.366,0,1.264,1.264,0,0,0-.007-.158,2.524,2.524,0,0,0,1.69-2.367V18.538a6.376,6.376,0,0,1,1.525-4.444,7.56,7.56,0,0,0,1.841-4.812A6.745,6.745,0,0,0,12.781,2.55Zm0,1.683A5.034,5.034,0,0,1,17.83,9.282,5.468,5.468,0,0,1,16.3,13.095a9.127,9.127,0,0,0-1.683,4.6H10.94a9.128,9.128,0,0,0-1.683-4.6A5.468,5.468,0,0,1,7.732,9.282,5.034,5.034,0,0,1,12.781,4.233ZM1,9.282v1.683H4.366V9.282Zm20.2,0v1.683h3.366V9.282ZM4.55,15.474l-.592.6-1.19,1.19-.6.592,1.2,1.19,1.782-1.782.6-.592Zm16.462,0-1.19,1.2L22.2,19.044l1.19-1.19L21.6,16.073ZM11.1,19.379h3.366v.841a.831.831,0,0,1-.841.841H11.939a.831.831,0,0,1-.841-.841Z" transform="translate(-1 -1.195)" fill="#392c23"/>
</svg>
