<svg xmlns="http://www.w3.org/2000/svg" width="21.879" height="21.879" viewBox="0 0 21.879 21.879">
  <path id="icons8_transaction" d="M11.939,1A10.911,10.911,0,0,0,3.82,4.616L1,1.8v5.93H6.95L5.017,5.806A9.253,9.253,0,1,1,11.939,21.2H11.1v1.683h.841A10.939,10.939,0,1,0,11.939,1Zm-.822,5.049V7.732h-.861a2.524,2.524,0,1,0,0,5.049h3.366a.841.841,0,1,1,0,1.683H7.732v1.683h3.386V17.83H12.8V16.147h.822a2.524,2.524,0,1,0,0-5.049H10.256a.841.841,0,1,1,0-1.683h4.207V7.732H12.8V6.049ZM1.841,11.1a.841.841,0,1,0,.841.841A.839.839,0,0,0,1.841,11.1Zm1.335,5.049a.8.8,0,0,0-.4.112.86.86,0,0,0-.394.513.831.831,0,0,0,.085.638.84.84,0,1,0,1.453-.841A.837.837,0,0,0,3.176,16.147Zm3.675,3.7a.816.816,0,0,0-.69.414.83.83,0,0,0-.085.638.86.86,0,0,0,.394.513.831.831,0,0,0,.638.085A.86.86,0,0,0,7.62,21.1a.838.838,0,0,0-.309-1.144A.763.763,0,0,0,6.851,19.848Z" transform="translate(-1 -1)" fill="#392c23"/>
</svg>
