<svg xmlns="http://www.w3.org/2000/svg" width="26.837" height="19.681" viewBox="0 0 26.837 19.681">
  <path id="icons8_user_manual" d="M7.157,2A13.721,13.721,0,0,0,.412,3.929L0,4.195V21.681H26.837V4.195l-.412-.266A13.721,13.721,0,0,0,19.681,2a9,9,0,0,0-6.262,2.5A9,9,0,0,0,7.157,2Zm0,1.789a6.958,6.958,0,0,1,5.367,2.195v13.8A8.762,8.762,0,0,0,7.157,18.1a12.976,12.976,0,0,0-5.367,1.237V5.243A10.889,10.889,0,0,1,7.157,3.789Zm12.524,0a10.889,10.889,0,0,1,5.367,1.454v14.1A12.976,12.976,0,0,0,19.681,18.1a8.762,8.762,0,0,0-5.367,1.677V5.984A6.958,6.958,0,0,1,19.681,3.789Zm.895,1.789a.895.895,0,1,0,.895.895A.892.892,0,0,0,20.575,5.578ZM17.892,9.157v1.789h1.789v5.367H21.47V9.157Z" transform="translate(0 -2)" fill="#fff"/>
</svg>
