<svg xmlns="http://www.w3.org/2000/svg" width="26.928" height="16.83" viewBox="0 0 26.928 16.83">
  <path id="icons8_management" d="M13.464,3a5.027,5.027,0,0,0-3.077,9.02,8.3,8.3,0,0,0-1.979,1.131c0-.02.007-.033.007-.053A3.366,3.366,0,1,0,2.63,15.425,5.04,5.04,0,0,0,0,19.83H1.683a3.356,3.356,0,0,1,3.366-3.366,3.424,3.424,0,0,1,.7.072,8.323,8.323,0,0,0-.7,3.294H6.732a6.7,6.7,0,0,1,5.049-6.5v1.446l1.683,1.683,1.683-1.683V13.335a6.7,6.7,0,0,1,5.049,6.5h1.683a8.327,8.327,0,0,0-.677-3.287,3.322,3.322,0,0,1,4.043,3.287h1.683a5.04,5.04,0,0,0-2.63-4.4A3.362,3.362,0,1,0,18.513,13.1v.039a8.312,8.312,0,0,0-1.972-1.118A5.027,5.027,0,0,0,13.464,3Zm0,13.464-1.683,1.683V19.83h3.366V18.147Zm0-11.781A3.366,3.366,0,1,1,10.1,8.049,3.356,3.356,0,0,1,13.464,4.683ZM5.049,11.415A1.683,1.683,0,1,1,3.366,13.1,1.67,1.67,0,0,1,5.049,11.415Zm16.83,0A1.683,1.683,0,1,1,20.2,13.1,1.67,1.67,0,0,1,21.879,11.415Z" transform="translate(0 -3)" fill="#392c23"/>
</svg>
