<svg xmlns="http://www.w3.org/2000/svg" width="25.395" height="21.469" viewBox="0 0 25.395 21.469">
  <path id="icons8service" d="M18.892,2V4.167a4.524,4.524,0,0,0-2.457,1.041c-.017.019-.008.05-.024.07L15.586,4.8l-.776-.447-.895,1.552.776.447,1.09.629c-.129.443-.468.821-.468,1.279s.339.836.468,1.279l-1.09.629-.776.447.895,1.552.776-.447.825-.475c.017.02.007.05.024.07a4.524,4.524,0,0,0,2.457,1.041v2.167h1.789V12.358a4.524,4.524,0,0,0,2.457-1.041c.017-.019.008-.05.025-.07l.825.475.776.447.895-1.552-.776-.447-1.09-.629c.129-.443.468-.821.468-1.279s-.339-.836-.468-1.279l1.09-.629.776-.447-.895-1.552-.776.447-.825.475c-.017-.02-.007-.05-.025-.07a4.524,4.524,0,0,0-2.457-1.041V2Zm.895,3.578A2.515,2.515,0,0,1,21.8,6.4a2.943,2.943,0,0,1,0,3.732,2.515,2.515,0,0,1-2.016.818,2.515,2.515,0,0,1-2.016-.818,2.943,2.943,0,0,1,0-3.732A2.515,2.515,0,0,1,19.787,5.578ZM8.157,12.735A9.778,9.778,0,0,0,6.113,13a.894.894,0,0,0-.094.028L1.6,14.573A.9.9,0,0,0,1.046,15.7l1.789,5.367a.895.895,0,0,0,1.181.549l4.1-1.642,5.682,2.8-.1-.056a4.479,4.479,0,0,0,4.4.315.9.9,0,0,0,.119-.066l7.44-5.021.741-.5-1-1.482-.741.5-7.342,4.952a2.679,2.679,0,0,1-2.621-.189.9.9,0,0,0-.1-.056L8.552,18.193a.9.9,0,0,0-.727-.028L4.233,19.6,3.024,15.971l3.529-1.234a9.647,9.647,0,0,1,1.6-.213,2.758,2.758,0,0,1,2.132.7,17.279,17.279,0,0,0,3.264,2.4c1.05.464,2.2.5,4.455.475l.895-.011L18.881,16.3l-.895.01c-2.218.029-3.081-.044-3.708-.321a20.2,20.2,0,0,1-2.886-2.17A4.961,4.961,0,0,0,8.157,12.735Z" transform="translate(-0.999 -2)" fill="#fff"/>
</svg>
