<svg xmlns="http://www.w3.org/2000/svg" width="24.402" height="23.123" viewBox="0 0 24.402 23.123">
  <path id="icons8_country" d="M16,4a5.016,5.016,0,0,0-5,5,4.767,4.767,0,0,0,.041.545L8.586,12h-2.2L3.82,17.125,8,22.352v2.063L10.586,27h4.828l1.826-1.826,4.877,1.949,4.172-2.781L25.217,22.2l3-3-1.875-3.75,1.881-.941L26.721,10H23.3L20.967,8.443A5.016,5.016,0,0,0,16,4Zm0,2a2.985,2.985,0,0,1,3,3,11.1,11.1,0,0,1-1.84,4.256A16.521,16.521,0,0,1,16,14.85a17.642,17.642,0,0,1-1.162-1.623A11.463,11.463,0,0,1,13,9,2.986,2.986,0,0,1,16,6Zm0,2a1,1,0,1,0,1,1A1,1,0,0,0,16,8Zm4.717,2.68L22.7,12h2.582l.5,1.494-2.119,1.059,2.125,4.25-3,3,.928,1.855-1.828,1.219L16.76,22.826,14.586,25H11.414L10,23.586V21.648L6.18,16.875,7.617,14h1.8l2.275-2.275a21.275,21.275,0,0,0,1.469,2.58,35.35,35.35,0,0,0,2.066,2.883l.768.945.777-.939a33.344,33.344,0,0,0,2.07-2.854A15.5,15.5,0,0,0,20.717,10.68ZM13,18a1,1,0,1,0,1,1A1,1,0,0,0,13,18Z" transform="translate(-3.82 -4)" fill="#392c23"/>
</svg>
