<svg xmlns="http://www.w3.org/2000/svg" width="25.245" height="25.245" viewBox="0 0 25.245 25.245">
  <path id="icons8_networking_manager" d="M8.732,0A1.7,1.7,0,0,0,7.049,1.683V9.256a.839.839,0,0,0,.841.841h9.464a.839.839,0,0,0,.841-.841V1.683A1.7,1.7,0,0,0,16.513,0Zm0,3.366h7.781V8.415H8.732ZM7.126,11.781,4.1,16.83H6.061l3.024-5.049Zm4.655,0V16.83h1.683V11.781Zm4.378,0L19.19,16.83h1.959l-3.031-5.049ZM1.683,18.513A1.686,1.686,0,0,0,0,20.2v3.366a1.686,1.686,0,0,0,1.683,1.683H5.049a1.686,1.686,0,0,0,1.683-1.683V20.2a1.686,1.686,0,0,0-1.683-1.683Zm8.415,0A1.686,1.686,0,0,0,8.415,20.2v3.366A1.686,1.686,0,0,0,10.1,25.245h5.049a1.686,1.686,0,0,0,1.683-1.683V20.2a1.686,1.686,0,0,0-1.683-1.683Zm10.1,0A1.686,1.686,0,0,0,18.513,20.2v3.366A1.686,1.686,0,0,0,20.2,25.245h3.366a1.686,1.686,0,0,0,1.683-1.683V20.2a1.686,1.686,0,0,0-1.683-1.683ZM1.683,20.2H5.049v3.366H1.683Zm8.415,0h5.049v3.366H10.1Zm10.1,0h3.366v3.366H20.2Z" fill="#392c23"/>
</svg>
