<svg xmlns="http://www.w3.org/2000/svg" width="24" height="24" viewBox="0 0 24 24">
  <path id="icons8_all_out" d="M2,2V8H4V5.43L9.07,10.5l1.414-1.414L5.4,4H8V2ZM20,2V4h2.586L19.945,6.586,21.359,8,24,5.414V8h2V2ZM14,4A9.954,9.954,0,0,0,9.4,5.172l1.469,1.469A8.047,8.047,0,0,1,14,6a7.87,7.87,0,0,1,3.125.641l1.469-1.469A9.829,9.829,0,0,0,14,4Zm8.836,5.406-1.469,1.469a8.007,8.007,0,0,1-.008,6.258L22.828,18.6a9.634,9.634,0,0,0,.008-9.2Zm-17.68.016A9.967,9.967,0,0,0,4,14a9.829,9.829,0,0,0,1.172,4.594l1.469-1.469A7.87,7.87,0,0,1,6,14a8.062,8.062,0,0,1,.625-3.109ZM9.07,17.516,4,22.586V20H2v6H8V24H5.414l5.07-5.07Zm9.844,0L17.5,18.93,22.57,24H20v2h6V20H24v2.6Zm-8.039,3.852L9.406,22.836A9.918,9.918,0,0,0,14,24a9.945,9.945,0,0,0,4.578-1.156l-1.469-1.469a8.04,8.04,0,0,1-6.234-.008Z" transform="translate(-2 -2)" fill="#392c23"/>
</svg>
