<svg xmlns="http://www.w3.org/2000/svg" width="16" height="16" viewBox="0 0 16 16">
  <path id="Union_8" data-name="Union 8" d="M4.308,16A4.313,4.313,0,0,1,0,11.692V4.308A4.313,4.313,0,0,1,4.308,0h7.384A4.313,4.313,0,0,1,16,4.308v7.384A4.313,4.313,0,0,1,11.692,16ZM1.231,4.308v7.384a3.081,3.081,0,0,0,3.077,3.077h7.384a3.081,3.081,0,0,0,3.077-3.077V4.308a3.081,3.081,0,0,0-3.077-3.077H4.308A3.08,3.08,0,0,0,1.231,4.308ZM3.692,8A4.308,4.308,0,1,1,8,12.308,4.313,4.313,0,0,1,3.692,8ZM4.923,8A3.077,3.077,0,1,0,8,4.923,3.08,3.08,0,0,0,4.923,8Zm6.769-4.615a.923.923,0,1,1,.923.923A.923.923,0,0,1,11.692,3.385Z" fill="#fff"/>
</svg>
