<svg xmlns="http://www.w3.org/2000/svg" width="38.562" height="46.274" viewBox="0 0 38.562 46.274">
  <g id="pdf" transform="translate(-1664.438 -531.863)">
    <path id="icons8_pdf" d="M14.026,21.3A3.25,3.25,0,0,0,11.947,22a3.535,3.535,0,0,0-1.054,1.687,8.33,8.33,0,0,0-.06,3.615,31.008,31.008,0,0,0,2,6.115c-.286.859-.286,1.537-.648,2.38a28.627,28.627,0,0,1-1.627,2.847A23.333,23.333,0,0,0,6.043,40.26a6.731,6.731,0,0,0-2.591,2.485,3.976,3.976,0,0,0,.271,3.916A3.789,3.789,0,0,0,5.44,48.078a3.529,3.529,0,0,0,2.229.015,6.977,6.977,0,0,0,3.148-2.3,29.2,29.2,0,0,0,2.335-4.022c.572-.151.919-.407,1.506-.527a21.674,21.674,0,0,1,2.561-.211,18.6,18.6,0,0,0,1.326,1.913,5,5,0,0,0,3.615,1.416,4.481,4.481,0,0,0,3.434-2.486h.015l.015-.03a3.488,3.488,0,0,0,.422-2,3.17,3.17,0,0,0-1.009-1.868,5.217,5.217,0,0,0-3.148-1.145,18.963,18.963,0,0,0-2.832.226A18.955,18.955,0,0,1,17.1,34.129c-.136-.286-.151-.542-.271-.843a27.979,27.979,0,0,0,1.506-5.649,7.81,7.81,0,0,0-.633-4.1A4.337,4.337,0,0,0,14.026,21.3Z" transform="translate(1661.438 529.863)" fill="#3ec4b5"/>
    <path id="icons8_pdf-2" data-name="icons8_pdf" d="M8.784,2A5.805,5.805,0,0,0,3,7.784V32.849H6.856V7.784A1.9,1.9,0,0,1,8.784,5.856H26.137V17.425H37.705V42.49a1.9,1.9,0,0,1-1.928,1.928H29.993v3.856h5.784a5.805,5.805,0,0,0,5.784-5.784V14.7L28.863,2ZM29.993,8.583l4.986,4.986H29.993Z" transform="translate(1661.438 529.863)" fill="#392c23"/>
  </g>
</svg>
