<svg xmlns="http://www.w3.org/2000/svg" width="56" height="56" viewBox="0 0 56 56">
  <g id="svg1" transform="translate(-1683 -225.904)">
    <g id="Ellipse_141" data-name="Ellipse 141" transform="translate(1683 225.904)" fill="#fff" stroke="#d6d6d6" stroke-width="1">
      <circle cx="28" cy="28" r="28" stroke="none"/>
      <circle cx="28" cy="28" r="27.5" fill="none"/>
    </g>
    <g id="svgexport-10" transform="translate(1692.875 208.074)">
      <g id="Group_53059" data-name="Group 53059" transform="translate(0.001 30)">
        <path id="Path_30141" data-name="Path 30141" d="M35.984,127.576a31.9,31.9,0,0,0-5.184-4.5c-8.4-5.892-16.614-6.128-25.351,0a31.9,31.9,0,0,0-5.184,4.5,1.057,1.057,0,0,0,0,1.4,31.9,31.9,0,0,0,5.184,4.5c8.4,5.892,16.614,6.128,25.351,0a31.906,31.906,0,0,0,5.184-4.5A1.057,1.057,0,0,0,35.984,127.576Zm-10.146.7a7.714,7.714,0,1,1-7.713-7.6A7.668,7.668,0,0,1,25.838,128.276Zm-23.306,0A30.28,30.28,0,0,1,10,122.808a9.605,9.605,0,0,0,0,10.935A30.289,30.289,0,0,1,2.531,128.276Zm23.723,5.468a9.605,9.605,0,0,0,0-10.935,30.289,30.289,0,0,1,7.464,5.468A30.283,30.283,0,0,1,26.254,133.743Z" transform="translate(-0.001 -112.276)" fill="#392c23"/>
        <path id="Path_30142" data-name="Path 30142" d="M187.611,213.132h.624l-1.69,1.69-1.38-1.38a1.066,1.066,0,0,0-1.508,0l-2.114,2.114a1.066,1.066,0,1,0,1.508,1.508l1.36-1.36,1.38,1.38a1.066,1.066,0,0,0,1.508,0l2.444-2.444v.269a1.066,1.066,0,1,0,2.132,0v-2.843A1.066,1.066,0,0,0,190.809,211h-3.2a1.066,1.066,0,1,0,0,2.132Z" transform="translate(-168.421 -198.198)" fill="#3ec4b5"/>
        <path id="Path_30143" data-name="Path 30143" d="M242.066,34.264a1.066,1.066,0,0,0,1.066-1.066V31.066a1.066,1.066,0,1,0-2.132,0V33.2A1.066,1.066,0,0,0,242.066,34.264Z" transform="translate(-223.942 -30)" fill="#392c23"/>
        <path id="Path_30144" data-name="Path 30144" d="M347.03,66.121a1.066,1.066,0,0,0,1.456-.39l1.066-1.846a1.066,1.066,0,1,0-1.846-1.066l-1.066,1.846A1.066,1.066,0,0,0,347.03,66.121Z" transform="translate(-321.976 -59.991)" fill="#392c23"/>
        <path id="Path_30145" data-name="Path 30145" d="M242.066,421A1.066,1.066,0,0,0,241,422.066v2.2a1.066,1.066,0,1,0,2.132,0v-2.2A1.066,1.066,0,0,0,242.066,421Z" transform="translate(-223.942 -393.335)" fill="#392c23"/>
        <path id="Path_30146" data-name="Path 30146" d="M347.987,393.4a1.066,1.066,0,0,0-1.846,1.066l1.1,1.908a1.066,1.066,0,1,0,1.846-1.066Z" transform="translate(-321.511 -367.197)" fill="#392c23"/>
        <path id="Path_30147" data-name="Path 30147" d="M121.706,65.732a1.066,1.066,0,0,0,1.846-1.066l-1.066-1.846a1.066,1.066,0,1,0-1.846,1.066Z" transform="translate(-111.97 -59.992)" fill="#392c23"/>
        <path id="Path_30148" data-name="Path 30148" d="M123.2,393a1.066,1.066,0,0,0-1.456.39l-1.1,1.908a1.066,1.066,0,0,0,1.846,1.066l1.1-1.908A1.066,1.066,0,0,0,123.2,393Z" transform="translate(-111.97 -367.196)" fill="#392c23"/>
      </g>
    </g>
  </g>
</svg>
