<svg xmlns="http://www.w3.org/2000/svg" width="56" height="56" viewBox="0 0 56 56">
  <g id="svg2" transform="translate(-1656 -421)">
    <g id="Ellipse_5723" data-name="Ellipse 5723" transform="translate(1656 421)" fill="#fff" stroke="#d6d6d6" stroke-width="1">
      <circle cx="28" cy="28" r="28" stroke="none"/>
      <circle cx="28" cy="28" r="27.5" fill="none"/>
    </g>
    <g id="svgexport-6_59_" data-name="svgexport-6 (59)" transform="translate(1668.001 433)">
      <path id="Path_30140" data-name="Path 30140" d="M29.65,7.653,31.2,6.1a.938.938,0,0,0-.584-1.6l-2.879-.243L27.5,1.382A.937.937,0,0,0,25.9.8L24.347,2.35A16,16,0,0,0,4.685,27.314,16,16,0,0,0,29.65,7.653ZM25.936,5.208a.938.938,0,0,0,.855.855l1.656.14L26.206,8.445l-2.445-.206-.206-2.445L25.8,3.551ZM19.186,16a3.19,3.19,0,1,1-1.7-2.816l-2.153,2.154a.937.937,0,1,0,1.326,1.326l2.154-2.153A3.166,3.166,0,0,1,19.186,16Zm-.334-4.179a5.068,5.068,0,1,0,1.326,1.326l2.677-2.677a8.823,8.823,0,1,1-1.326-1.326Zm7.134,14.167A14.125,14.125,0,1,1,6.011,6.013,14.131,14.131,0,0,1,22.978,3.718L21.921,4.775a.937.937,0,0,0-.274.639c0,.034,0,.068,0,.1l.126,1.5a10.7,10.7,0,1,0,3.211,3.211l1.5.126c.026,0,.053,0,.079,0h.013l.037,0,.061,0,.037-.006.059-.011.037-.009.057-.017.036-.013.054-.023.034-.016.053-.03.031-.019c.019-.012.036-.025.054-.039l.025-.019a.93.93,0,0,0,.073-.066l1.057-1.057a14.131,14.131,0,0,1-2.295,16.967Zm0,0" fill="#392c23"/>
    </g>
  </g>
</svg>
