<svg xmlns="http://www.w3.org/2000/svg" width="56" height="56" viewBox="0 0 56 56">
  <g id="svg3" transform="translate(-1678 -377)">
    <g id="Group_54727" data-name="Group 54727" transform="translate(22 -44)">
      <g id="Ellipse_5723" data-name="Ellipse 5723" transform="translate(1656 421)" fill="#fff" stroke="#d6d6d6" stroke-width="1">
        <circle cx="28" cy="28" r="28" stroke="none"/>
        <circle cx="28" cy="28" r="27.5" fill="none"/>
      </g>
    </g>
    <g id="svgexport-7_1_" data-name="svgexport-7 (1)" transform="translate(1691 388.001)">
      <g id="surface1" transform="translate(0 -0.001)">
        <path id="Path_30159" data-name="Path 30159" d="M29.739,9.486V9.458c-.015-.336-.025-.691-.031-1.087a3.706,3.706,0,0,0-3.489-3.63A14.379,14.379,0,0,1,16.431.617L16.408.6a2.238,2.238,0,0,0-3.041,0l-.023.022A14.381,14.381,0,0,1,3.557,4.742,3.705,3.705,0,0,0,.068,8.372C.062,8.765.052,9.12.037,9.458l0,.063c-.078,4.1-.175,9.2,1.531,13.831a17.607,17.607,0,0,0,4.224,6.579,22.1,22.1,0,0,0,8.266,4.889,2.561,2.561,0,0,0,.339.092,2.5,2.5,0,0,0,.984,0,2.568,2.568,0,0,0,.34-.093,22.111,22.111,0,0,0,8.257-4.892A17.632,17.632,0,0,0,28.2,23.348C29.914,18.7,29.817,13.593,29.739,9.486ZM26.276,22.638c-1.8,4.881-5.475,8.232-11.233,10.246a.515.515,0,0,1-.065.018.46.46,0,0,1-.18,0,.51.51,0,0,1-.065-.017c-5.765-2.01-9.442-5.36-11.241-10.241C1.919,18.375,2.008,13.692,2.086,9.561V9.538c.016-.355.027-.727.033-1.136A1.647,1.647,0,0,1,3.672,6.79a18,18,0,0,0,6.11-1.344A15.985,15.985,0,0,0,14.76,2.1a.189.189,0,0,1,.254,0,15.991,15.991,0,0,0,4.979,3.345A18,18,0,0,0,26.1,6.79,1.647,1.647,0,0,1,27.655,8.4c.006.411.017.783.033,1.135C27.766,13.674,27.853,18.361,26.276,22.638Zm0,0" transform="translate(0 0.001)" fill="#392c23"/>
        <path id="Path_30160" data-name="Path 30160" d="M99.112,128.41a8.714,8.714,0,1,0,8.713,8.714A8.723,8.723,0,0,0,99.112,128.41Zm0,15.375a6.662,6.662,0,1,1,6.662-6.662A6.669,6.669,0,0,1,99.112,143.785Zm0,0" transform="translate(-84.225 -119.641)" fill="#3ec4b5"/>
        <path id="Path_30161" data-name="Path 30161" d="M160.57,212.292l-4.047,4.047-1.1-1.1a1.026,1.026,0,0,0-1.451,1.451l1.824,1.824a1.026,1.026,0,0,0,1.451,0l4.773-4.773a1.026,1.026,0,1,0-1.451-1.451Zm0,0" transform="translate(-143.179 -197.514)" fill="#3ec4b5"/>
      </g>
    </g>
  </g>
</svg>
