<svg xmlns="http://www.w3.org/2000/svg" width="56" height="56" viewBox="0 0 56 56">
  <g id="svg4" transform="translate(-1136 -1056)">
    <g id="Rectangle_" data-name="Rectangle " transform="translate(1136 1056)" fill="#fafafa" stroke="#d6d6d6" stroke-width="0.5">
      <rect width="56" height="56" rx="28" stroke="none"/>
      <rect x="0.25" y="0.25" width="55.5" height="55.5" rx="27.75" fill="none"/>
    </g>
    <g id="svgexport-6_59_" data-name="svgexport-6 (59)" transform="translate(1149 1069)">
      <path id="Path_30140" data-name="Path 30140" d="M27.8,7.175,29.252,5.72a.879.879,0,0,0-.548-1.5L26,3.995l-.228-2.7a.879.879,0,0,0-1.5-.547L22.825,2.2a15,15,0,0,0-18.433,23.4A15,15,0,0,0,27.8,7.175ZM24.315,4.882a.879.879,0,0,0,.8.8l1.553.131-2.1,2.1-2.292-.193-.193-2.292,2.1-2.1ZM17.987,15A2.991,2.991,0,1,1,16.4,12.36l-2.019,2.019a.879.879,0,1,0,1.243,1.243L17.639,13.6a2.968,2.968,0,0,1,.348,1.4Zm-.313-3.918a4.751,4.751,0,1,0,1.243,1.243l2.509-2.509a8.271,8.271,0,1,1-1.243-1.243Zm6.689,13.282A13.242,13.242,0,1,1,5.635,5.637,13.248,13.248,0,0,1,21.542,3.486l-.991.991a.879.879,0,0,0-.257.6c0,.032,0,.064,0,.1l.118,1.4a10.028,10.028,0,1,0,3.01,3.01l1.4.118.074,0h.013l.035,0,.057,0,.035-.005.055-.011.035-.009.053-.016.034-.012.051-.022.032-.015.05-.028.029-.017c.017-.011.034-.024.051-.036l.023-.017a.871.871,0,0,0,.069-.062l.991-.991a13.248,13.248,0,0,1-2.151,15.907Zm0,0" transform="translate(0.001 -0.001)" fill="#3ec4b5"/>
    </g>
  </g>
</svg>
