<svg id="svg5" xmlns="http://www.w3.org/2000/svg" width="56" height="56" viewBox="0 0 56 56">
  <g id="Rectangle_" data-name="Rectangle " fill="#fafafa" stroke="#d6d6d6" stroke-width="0.5">
    <rect width="56" height="56" rx="28" stroke="none"/>
    <rect x="0.25" y="0.25" width="55.5" height="55.5" rx="27.75" fill="none"/>
  </g>
  <g id="svgexport-10" transform="translate(13 -15.242)">
    <g id="Group_53059" data-name="Group 53059" transform="translate(0.001 30)">
      <path id="Path_30141" data-name="Path 30141" d="M29.782,126.026a26.4,26.4,0,0,0-4.29-3.724c-6.952-4.878-13.75-5.074-20.981,0a26.4,26.4,0,0,0-4.29,3.724.876.876,0,0,0,0,1.159,26.4,26.4,0,0,0,4.29,3.724c6.952,4.878,13.75,5.074,20.981,0a26.408,26.408,0,0,0,4.29-3.724A.876.876,0,0,0,29.782,126.026Zm-8.4.579A6.384,6.384,0,1,1,15,120.311,6.347,6.347,0,0,1,21.384,126.606Zm-19.289,0a25.061,25.061,0,0,1,6.177-4.527,7.955,7.955,0,0,0,0,9.054A25.069,25.069,0,0,1,2.1,126.606Zm19.634,4.527a7.955,7.955,0,0,0,0-9.054,25.069,25.069,0,0,1,6.177,4.527A25.064,25.064,0,0,1,21.729,131.132Z" transform="translate(-0.001 -113.364)" fill="#b0252a"/>
      <path id="Path_30142" data-name="Path 30142" d="M186.509,212.764h.517l-1.4,1.4-1.142-1.142a.882.882,0,0,0-1.247,0l-1.748,1.749a.882.882,0,1,0,1.247,1.247l1.125-1.125L185,216.032a.882.882,0,0,0,1.247,0l2.022-2.022v.223a.882.882,0,0,0,1.764,0v-2.351a.882.882,0,0,0-.882-.882h-2.645a.882.882,0,1,0,0,1.764Z" transform="translate(-170.627 -200.403)" fill="#b0252a"/>
      <path id="Path_30143" data-name="Path 30143" d="M241.882,33.527a.882.882,0,0,0,.882-.882V30.882a.882.882,0,1,0-1.764,0v1.764A.882.882,0,0,0,241.882,33.527Z" transform="translate(-226.882 -30)" fill="#b0252a"/>
      <path id="Path_30144" data-name="Path 30144" d="M346.938,65.458a.882.882,0,0,0,1.2-.323l.882-1.527a.882.882,0,0,0-1.527-.882l-.882,1.527A.882.882,0,0,0,346.938,65.458Z" transform="translate(-326.201 -60.388)" fill="#b0252a"/>
      <path id="Path_30145" data-name="Path 30145" d="M241.882,421a.882.882,0,0,0-.882.882V423.7a.882.882,0,0,0,1.764,0v-1.822A.882.882,0,0,0,241.882,421Z" transform="translate(-226.882 -398.102)" fill="#b0252a"/>
      <path id="Path_30146" data-name="Path 30146" d="M347.643,393.3a.882.882,0,0,0-1.527.882l.911,1.578a.882.882,0,1,0,1.527-.882Z" transform="translate(-325.73 -371.617)" fill="#b0252a"/>
      <path id="Path_30147" data-name="Path 30147" d="M121.5,65.136a.882.882,0,1,0,1.527-.882l-.882-1.527a.882.882,0,1,0-1.527.882Z" transform="translate(-113.439 -60.388)" fill="#b0252a"/>
      <path id="Path_30148" data-name="Path 30148" d="M122.731,392.98a.882.882,0,0,0-1.2.323l-.911,1.578a.882.882,0,0,0,1.527.882l.911-1.578A.882.882,0,0,0,122.731,392.98Z" transform="translate(-113.439 -371.617)" fill="#b0252a"/>
    </g>
  </g>
</svg>
