<svg xmlns="http://www.w3.org/2000/svg" width="32" height="24.971" viewBox="0 0 32 24.971">
  <g id="svgexport-6_3_" data-name="svgexport-6 (3)" transform="translate(0 -56.233)">
    <g id="Group_1687" data-name="Group 1687" transform="translate(0 56.233)">
      <path id="Path_1273" data-name="Path 1273" d="M199.8,425.767h-6.061a.943.943,0,0,0,0,1.886H199.8a.943.943,0,1,0,0-1.886Z" transform="translate(-180.774 -402.682)" fill="#392c23"/>
      <path id="Path_1274" data-name="Path 1274" d="M148.777,203.676a2.963,2.963,0,0,0-3.972-3.972l-4.443-4.443a.943.943,0,0,0-1.334,1.334l4.443,4.443a2.963,2.963,0,0,0,3.972,3.971l1.045,1.045a.943.943,0,1,0,1.334-1.334Zm-2.653-.243a1.076,1.076,0,1,1,1.076-1.076A1.078,1.078,0,0,1,146.125,203.433Z" transform="translate(-130.109 -186.357)" fill="#392c23"/>
      <path id="Path_1275" data-name="Path 1275" d="M16,56.233a16,16,0,0,0-13.856,24,.938.938,0,0,0,1.28.342l2.609-1.506A.937.937,0,1,0,5.1,77.444L3.325,78.466a14.112,14.112,0,0,1-1.418-5.3H3.95a.937.937,0,1,0,0-1.875H1.907A14.015,14.015,0,0,1,3.328,66L5.1,67.019A.937.937,0,1,0,6.033,65.4L4.267,64.376A14.241,14.241,0,0,1,8.144,60.5l1.02,1.766a.937.937,0,0,0,1.624-.937L9.766,59.56a14.025,14.025,0,0,1,5.3-1.42v2.043a.938.938,0,0,0,1.875,0V58.14a14.026,14.026,0,0,1,5.3,1.42l-1.021,1.768a.937.937,0,0,0,1.624.937l1.02-1.766a14.238,14.238,0,0,1,3.876,3.876l-1.766,1.019a.937.937,0,1,0,.937,1.624L28.673,66a14.017,14.017,0,0,1,1.421,5.3H28.05a.937.937,0,1,0,0,1.875h2.043a14.112,14.112,0,0,1-1.417,5.3L26.9,77.443a.937.937,0,1,0-.937,1.624l2.609,1.506a.937.937,0,0,0,1.28-.342A16,16,0,0,0,16,56.233Z" transform="translate(0 -56.233)" fill="#392c23"/>
    </g>
  </g>
</svg>
