<svg id="svgexport-6_6_" data-name="svgexport-6 (6)" xmlns="http://www.w3.org/2000/svg" width="18" height="15.672" viewBox="0 0 18 15.672">
  <g id="XMLID_496_">
    <path id="XMLID_497_" d="M.318,26.915l4.148,1.548,1.605,5.163a.488.488,0,0,0,.775.233l2.312-1.885A.69.69,0,0,1,10,31.951l4.17,3.027a.489.489,0,0,0,.766-.3L17.99,19.99a.489.489,0,0,0-.655-.556L.313,26A.489.489,0,0,0,.318,26.915Zm5.494.724,8.106-4.992a.141.141,0,0,1,.17.224L7.4,29.089a1.387,1.387,0,0,0-.43.83l-.228,1.689a.209.209,0,0,1-.409.03l-.876-3.08A.816.816,0,0,1,5.812,27.639Z" transform="translate(0 -19.401)" fill="#392c23"/>
  </g>
</svg>
