<svg id="svgexport-6_2_" data-name="svgexport-6 (2)" xmlns="http://www.w3.org/2000/svg" width="30" height="30" viewBox="0 0 30 30">
  <path id="Path_1270" data-name="Path 1270" d="M26.768,0H3.232A3.236,3.236,0,0,0,0,3.232v17.24a3.236,3.236,0,0,0,3.232,3.232h7.459l2.47,4.94A2.137,2.137,0,0,0,15,30a2.137,2.137,0,0,0,1.839-1.354l2.47-4.94h7.459A3.236,3.236,0,0,0,30,20.473V3.232A3.236,3.236,0,0,0,26.768,0Zm1.474,20.473a1.476,1.476,0,0,1-1.474,1.474h-8a.879.879,0,0,0-.786.486L15.266,27.86a1.07,1.07,0,0,1-.266.367,1.07,1.07,0,0,1-.266-.367L12.02,22.433a.879.879,0,0,0-.786-.486h-8a1.476,1.476,0,0,1-1.475-1.474V3.232A1.476,1.476,0,0,1,3.233,1.758H26.768a1.476,1.476,0,0,1,1.474,1.475Zm0,0" fill="#392c23"/>
  <path id="Path_1271" data-name="Path 1271" d="M211.62,262.1a2.753,2.753,0,1,0,2.753,2.753A2.756,2.756,0,0,0,211.62,262.1Zm0,3.754a1,1,0,1,1,1-1A1,1,0,0,1,211.62,265.859Zm0,0" transform="translate(-196.62 -246.736)" fill="#392c23"/>
  <path id="Path_1272" data-name="Path 1272" d="M211.62,64.266a2.756,2.756,0,0,0-2.753,2.753v4.048a2.753,2.753,0,0,0,5.506,0V67.019A2.756,2.756,0,0,0,211.62,64.266Zm1,6.8a1,1,0,1,1-2,0V67.019a1,1,0,0,1,2,0Zm0,0" transform="translate(-196.62 -60.512)" fill="#392c23"/>
</svg>
