<svg xmlns="http://www.w3.org/2000/svg" width="30" height="29.998" viewBox="0 0 30 29.998">
  <g id="svgexport-6_4_" data-name="svgexport-6 (4)" transform="translate(0 -0.013)">
    <g id="Group_1689" data-name="Group 1689" transform="translate(0 0.013)">
      <g id="Group_1688" data-name="Group 1688" transform="translate(0 0)">
        <path id="Path_1276" data-name="Path 1276" d="M21.166,16.207,19.35,14.391l4.8-4.8.622.621a.879.879,0,0,0,1.375-.169L29.874,3.83a.879.879,0,0,0-.132-1.074L27.256.27A.879.879,0,0,0,26.183.138L19.968,3.867A.879.879,0,0,0,19.8,5.242l.622.621-4.8,4.8L13.806,8.846A7.01,7.01,0,0,0,3.691.861a.879.879,0,0,0-.2,1.4l3.3,3.3A.879.879,0,0,1,5.542,6.8l-3.3-3.3a.879.879,0,0,0-1.4.2A7.01,7.01,0,0,0,8.834,13.818l.573.573L1.289,22.509A4.395,4.395,0,0,0,7.5,28.723l8.118-8.118.573.573a7.01,7.01,0,0,0,10.114,7.986.879.879,0,0,0,.2-1.4l-3.3-3.3a.879.879,0,0,1,1.243-1.243l3.3,3.3a.879.879,0,0,0,1.4-.2,7.01,7.01,0,0,0-7.986-10.114ZM26.5,2l1.515,1.515-2.8,4.661-3.38-3.38ZM21.663,7.106l1.243,1.243-4.8,4.8-1.243-1.243ZM6.261,27.481a2.637,2.637,0,1,1-3.729-3.729l8.118-8.118,3.729,3.729Zm21.8-3.136L25.7,21.984a2.637,2.637,0,0,0-3.729,3.729l2.361,2.361a5.206,5.206,0,0,1-5.075-1.346,5.3,5.3,0,0,1-1.239-5.5.879.879,0,0,0-.207-.916L9.7,12.2a.879.879,0,0,0-.916-.207,5.3,5.3,0,0,1-5.5-1.239A5.206,5.206,0,0,1,1.938,5.679L4.3,8.04A2.637,2.637,0,0,0,8.028,4.311L5.667,1.95A5.205,5.205,0,0,1,10.742,3.3a5.3,5.3,0,0,1,1.239,5.5.879.879,0,0,0,.207.916l8.11,8.11a.879.879,0,0,0,.916.207,5.3,5.3,0,0,1,5.5,1.239A5.206,5.206,0,0,1,28.062,24.345Z" transform="translate(0 -0.013)"/>
      </g>
    </g>
    <g id="Group_1691" data-name="Group 1691" transform="translate(4.567 18.591)">
      <g id="Group_1690" data-name="Group 1690">
        <path id="Path_1277" data-name="Path 1277" d="M84.586,315.847a.872.872,0,0,0-1.233,0l-5.33,5.33a.872.872,0,0,0,1.233,1.233l5.33-5.33A.872.872,0,0,0,84.586,315.847Z" transform="translate(-77.767 -315.591)"/>
      </g>
    </g>
  </g>
</svg>
