<svg id="svgexport-6_1_" data-name="svgexport-6 (1)" xmlns="http://www.w3.org/2000/svg" width="30.003" height="30.003" viewBox="0 0 30.003 30.003">
  <g id="Group_1670" data-name="Group 1670">
    <g id="Group_1669" data-name="Group 1669">
      <path id="Path_1262" data-name="Path 1262" d="M19.215,3.913H17.744a2.936,2.936,0,0,0-2.763-1.957H13.837a2.93,2.93,0,0,0-5.527,0H7.165A2.936,2.936,0,0,0,4.4,3.913H2.931A2.936,2.936,0,0,0,0,6.849V27.068A2.936,2.936,0,0,0,2.931,30H19.215a2.936,2.936,0,0,0,2.931-2.935V6.849A2.936,2.936,0,0,0,19.215,3.913ZM6.188,4.892a.979.979,0,0,1,.977-.978H9.119a.978.978,0,0,0,.977-.978.977.977,0,1,1,1.954,0,.978.978,0,0,0,.977.978h1.954a.979.979,0,0,1,.977.978V5.87H6.188Zm14,22.176a.979.979,0,0,1-.977.978H2.931a.979.979,0,0,1-.977-.978V6.849a.979.979,0,0,1,.977-.978h1.3v.978a.978.978,0,0,0,.977.978H16.935a.978.978,0,0,0,.977-.978V5.87h1.3a.979.979,0,0,1,.977.978V27.068Z" fill="#fff"/>
    </g>
  </g>
  <g id="Group_1672" data-name="Group 1672" transform="translate(24.11 4.468)">
    <g id="Group_1671" data-name="Group 1671">
      <path id="Path_1263" data-name="Path 1263" d="M414.772,77.913a2.95,2.95,0,0,0-2.946,2.946V98.074c0,.9.185,1.065,2.068,4.831a.983.983,0,0,0,1.757,0c1.883-3.765,2.068-3.931,2.068-4.831V80.859A2.95,2.95,0,0,0,414.772,77.913Zm.982,20.161c0,.307-.032.3-.982,2.2-.949-1.9-.982-1.888-.982-2.2v-.518h1.964v.518Zm0-2.483H413.79V87.734h1.964Zm0-9.821H413.79V80.859a.982.982,0,1,1,1.964,0V85.77Z" transform="translate(-411.826 -77.913)" fill="#fff"/>
    </g>
  </g>
  <g id="Group_1674" data-name="Group 1674" transform="translate(3.928 11.078)">
    <g id="Group_1673" data-name="Group 1673">
      <path id="Path_1264" data-name="Path 1264" d="M74.351,189.505a.982.982,0,0,0-1.389,0l-3.234,3.234-1.27-1.27a.982.982,0,0,0-1.389,1.389l1.964,1.964a.982.982,0,0,0,1.389,0l3.928-3.928A.982.982,0,0,0,74.351,189.505Z" transform="translate(-66.782 -189.218)" fill="#fff"/>
    </g>
  </g>
  <g id="Group_1676" data-name="Group 1676" transform="translate(3.928 18.897)">
    <g id="Group_1675" data-name="Group 1675">
      <path id="Path_1265" data-name="Path 1265" d="M74.352,323.07a.982.982,0,0,0-1.389,0L69.729,326.3l-1.27-1.27a.982.982,0,0,0-1.389,1.389l1.964,1.964a.982.982,0,0,0,1.389,0l3.928-3.928A.982.982,0,0,0,74.352,323.07Z" transform="translate(-66.783 -322.783)" fill="#fff"/>
    </g>
  </g>
  <g id="Group_1678" data-name="Group 1678" transform="translate(13.688 11.085)">
    <g id="Group_1677" data-name="Group 1677">
      <path id="Path_1266" data-name="Path 1266" d="M237.34,189.217h-2.619a.982.982,0,0,0,0,1.964h2.619a.982.982,0,0,0,0-1.964Z" transform="translate(-233.739 -189.217)" fill="#fff"/>
    </g>
  </g>
  <g id="Group_1680" data-name="Group 1680" transform="translate(11.728 14.997)">
    <g id="Group_1679" data-name="Group 1679">
      <path id="Path_1267" data-name="Path 1267" d="M205.913,256H201.33a.982.982,0,1,0,0,1.964h4.583a.982.982,0,1,0,0-1.964Z" transform="translate(-200.348 -256)" fill="#fff"/>
    </g>
  </g>
  <g id="Group_1682" data-name="Group 1682" transform="translate(13.688 18.91)">
    <g id="Group_1681" data-name="Group 1681">
      <path id="Path_1268" data-name="Path 1268" d="M237.34,322.783h-2.619a.982.982,0,1,0,0,1.964h2.619a.982.982,0,1,0,0-1.964Z" transform="translate(-233.739 -322.783)" fill="#fff"/>
    </g>
  </g>
  <g id="Group_1684" data-name="Group 1684" transform="translate(11.728 22.822)">
    <g id="Group_1683" data-name="Group 1683">
      <path id="Path_1269" data-name="Path 1269" d="M205.913,389.565H201.33a.982.982,0,1,0,0,1.964h4.583a.982.982,0,1,0,0-1.964Z" transform="translate(-200.348 -389.565)" fill="#fff"/>
    </g>
  </g>
</svg>
