<svg xmlns="http://www.w3.org/2000/svg" width="24" height="24" viewBox="0 0 24 24">
  <g id="svgexport-6_47_" data-name="svgexport-6 (47)" transform="translate(-2 -2)">
    <g id="Group_1637" data-name="Group 1637" transform="translate(2 2)">
      <path id="Path_1259" data-name="Path 1259" d="M76.717,179.718V158.289a.857.857,0,0,1,.857-.857H87.86a.857.857,0,0,1,.857.857v4.286h7.714a.857.857,0,0,1,.857.857v16.286h.857a.857.857,0,0,1,0,1.714H75.86a.857.857,0,0,1,0-1.714Zm10.286,0V159.146H78.432v20.571h1.712v-4.286a.857.857,0,0,1,.857-.857h3.429a.857.857,0,0,1,.857.857v4.286Zm-5.145-3.429v3.429h1.714v-3.429Zm6.86-12v15.429h6.857V164.289ZM91.286,178H93a.857.857,0,0,0,0-1.714H91.286a.857.857,0,1,0,0,1.714Zm0-3.429H93a.857.857,0,0,0,0-1.714H91.286a.857.857,0,1,0,0,1.714ZM81,172.861h3.429a.857.857,0,1,0,0-1.714H81a.857.857,0,0,0,0,1.714Zm10.286-1.714H93a.857.857,0,1,0,0-1.714H91.286a.857.857,0,1,0,0,1.714ZM81,169.432h3.429a.857.857,0,1,0,0-1.714H81a.857.857,0,0,0,0,1.714Zm10.286-1.714H93A.857.857,0,0,0,93,166H91.286a.857.857,0,1,0,0,1.714ZM81,166h3.429a.857.857,0,1,0,0-1.714H81A.857.857,0,1,0,81,166Zm3.429-5.143a.857.857,0,1,1,0,1.714H80.97l-.027,0-.027,0-.027,0-.027,0-.026,0-.032-.007-.029-.008-.03-.009-.03-.009-.025-.009-.024-.01-.024-.01-.023-.011-.023-.012-.023-.012-.022-.014-.021-.014-.021-.015-.021-.015-.021-.015-.024-.02-.023-.021-.022-.021-.021-.021-.022-.025-.02-.023-.019-.025-.018-.025-.015-.021-.014-.022-.013-.022-.013-.022-.012-.023-.013-.028-.013-.029-.011-.03-.009-.027-.009-.03-.007-.026-.006-.026-.005-.027,0-.027,0-.027,0-.027,0-.027,0-.027v-.057l0-.027,0-.027,0-.015a.858.858,0,0,1,.851-.753Z" transform="translate(-75.003 -157.432)" fill="#cf2a45"/>
    </g>
  </g>
</svg>
