<svg xmlns="http://www.w3.org/2000/svg" width="18" height="16.884" viewBox="0 0 18 16.884">
  <g id="svgexport-6_8_" data-name="svgexport-6 (8)" transform="translate(0 -15.988)">
    <g id="Group_54686" data-name="Group 54686" transform="translate(0 15.988)">
      <g id="Group_54685" data-name="Group 54685" transform="translate(0 0)">
        <path id="Path_25755" data-name="Path 25755" d="M17.647,28.6a5.2,5.2,0,0,1-3.535-2.967.17.17,0,0,0-.01-.02A.745.745,0,0,1,14.018,25c.132-.308.636-.468.969-.574.1-.03.188-.06.263-.089a2.037,2.037,0,0,0,.718-.429.682.682,0,0,0,.218-.491.772.772,0,0,0-.578-.67,1.045,1.045,0,0,0-.392-.074.871.871,0,0,0-.365.074,2.045,2.045,0,0,1-.75.214.689.689,0,0,1-.249-.054c.007-.113.014-.228.021-.348l0-.052a8.919,8.919,0,0,0-.23-3.636,4.891,4.891,0,0,0-1.1-1.577,4.606,4.606,0,0,0-1.317-.869,5.2,5.2,0,0,0-2.055-.434H9.128l-.309,0a5.223,5.223,0,0,0-2.058.434,4.58,4.58,0,0,0-1.313.868,4.907,4.907,0,0,0-1.1,1.574A8.927,8.927,0,0,0,4.121,22.5v0c.008.131.017.267.025.4a.721.721,0,0,1-.295.055,1.951,1.951,0,0,1-.8-.215.72.72,0,0,0-.3-.063,1.077,1.077,0,0,0-.539.151.746.746,0,0,0-.381.487.673.673,0,0,0,.257.631,2.212,2.212,0,0,0,.671.384c.077.03.168.059.263.089.333.106.838.266.97.574a.75.75,0,0,1-.086.612.16.16,0,0,0-.009.02,5.961,5.961,0,0,1-.907,1.4A5.089,5.089,0,0,1,1.889,28a4.023,4.023,0,0,1-1.536.6A.42.42,0,0,0,0,29.034a.533.533,0,0,0,.044.183h0a1.125,1.125,0,0,0,.61.521,6.961,6.961,0,0,0,1.761.458,2.138,2.138,0,0,1,.108.387c.029.135.06.275.1.422a.461.461,0,0,0,.483.351,2.349,2.349,0,0,0,.414-.057,4.706,4.706,0,0,1,.944-.107,4.1,4.1,0,0,1,.675.057A3.206,3.206,0,0,1,6.4,31.9a4.082,4.082,0,0,0,2.486.969q.046,0,.091,0c.036,0,.082,0,.129,0A4.088,4.088,0,0,0,11.6,31.9h0a3.217,3.217,0,0,1,1.261-.651,4.1,4.1,0,0,1,.675-.057,4.728,4.728,0,0,1,.944.1,2.28,2.28,0,0,0,.414.051h.02A.456.456,0,0,0,15.375,31c.043-.145.073-.28.1-.419a2.212,2.212,0,0,1,.107-.385,7.009,7.009,0,0,0,1.761-.458,1.129,1.129,0,0,0,.609-.52A.535.535,0,0,0,18,29.033.419.419,0,0,0,17.647,28.6Z" transform="translate(0 -15.988)" fill="#392c23"/>
      </g>
    </g>
  </g>
</svg>
