<svg xmlns="http://www.w3.org/2000/svg" width="18.814" height="19.859" viewBox="0 0 18.814 19.859">
  <path id="Union_33" data-name="Union 33" d="M4.276,0A2.537,2.537,0,0,0,1.71,2.481V3.31H3.42V2.481a.831.831,0,0,1,.856-.827H16.249a.83.83,0,0,1,.854.827V17.376a.831.831,0,0,1-.854.828H4.276a.831.831,0,0,1-.856-.828V14.895H0v1.655H1.71v.827a2.539,2.539,0,0,0,2.566,2.483H16.249a2.538,2.538,0,0,0,2.565-2.483V2.481A2.537,2.537,0,0,0,16.249,0ZM.856,4.964H0V6.619H1.71V8.274H3.42V4.964Zm7.7,1.655V8.274h6.841V6.619Zm-3.422,0V8.274h1.71V6.619Zm0,3.31v4.966H15.393V9.929Zm1.71,1.655h6.842V13.24H6.841ZM.856,9.929H0v1.655H1.71V13.24H3.42V9.929Z" transform="translate(18.814 19.859) rotate(180)" fill="#392c23"/>
</svg>
